<svg xmlns="http://www.w3.org/2000/svg" viewBox="0 0 311.26 126.36"><defs><style>.cls-1,.cls-2,.cls-3{fill:#fff;}.cls-1{fill-rule:evenodd;}.cls-3{font-size:11.39px;font-family:Roboto-Light, Roboto;}.cls-4{letter-spacing:-0.01em;}.cls-5{letter-spacing:0em;}</style></defs><title>Zasób 8</title><g id="Warstwa_2" data-name="Warstwa 2"><g id="Warstwa_1-2" data-name="Warstwa 1"><path class="cls-1" d="M131.72,115.78c8.29,5,15.29,9.13,17.62,10.58-2.75-1.52-10.45-5.63-19.69-10.58Z"/><path class="cls-1" d="M112.46,92.79c17.93,2.17,42.6,3.41,63.13,3.42v0c-5.66.21-39,1.88-65.63-1a136.45,136.45,0,0,1-16.1-2.58c1.86,1.33,7.81,5,15.19,9.47h-4.67C94.2,96.65,85.73,92,83.44,90.43c-4.71-1.12-2.29-.85-6.22-2l.11.07q-1.86-.53-3.67-1.13l-.11,0a28.12,28.12,0,0,1-5.22-1.89C45.41,76.09,30.83,56.15,26.39,48c-6.32-11.6-4.56-22.9-11-32.13-3.48-5-6.48-7.13-11.55-10L0,3.51l3.79.3c1.1,0,2.27.14,3.31.26a6.49,6.49,0,0,1,.77.09H8l.31,0h0a4.21,4.21,0,0,0,2.61-.42,4.14,4.14,0,0,1,.81-.74h0C15,.55,24.46-2.25,33.61,2.87c3.77,2.12,5.86,4.85,7.9,8a104.06,104.06,0,0,0,8.31,11.71A12.27,12.27,0,0,0,56,20.92a81.3,81.3,0,0,1,14.31-6.64C109.1,1.11,112.27,22.8,171.25,19c4.41-.46,12.76-1.87,17.48-3.78l-13.58,6.19c-2,.9-3.88,1.92-5.18,2.5-6.36,2.82-14.87,6.78-20.51,8.43-10.73,3.12-20.34,4.94-34.79,6.32-22.49,2.13-39.84,9-43.24,16-5.34,11.09,2.1,21.83,15.28,32.56a201.36,201.36,0,0,0,23.2,5.2Z"/><path class="cls-2" d="M89.14,47.13h11.23q6.18,0,9.35,2.8t3.16,8.19q0,5.44-3.16,8.23t-9.35,2.78H94.11V83.9h-5Zm5,4.09V65h6.26a7.5,7.5,0,0,0,5.37-1.8,6.72,6.72,0,0,0,1.9-5.12,6.69,6.69,0,0,0-1.9-5.1,7.5,7.5,0,0,0-5.37-1.8Z"/><path class="cls-2" d="M125.81,47.13h5.64l14,36.77h-5.17l-3.35-9.43H120.37L117,83.9h-5.25Zm2.81,4.9-6.75,18.3h13.52Z"/><path class="cls-2" d="M168.27,66.66A7.33,7.33,0,0,1,171.38,69a23.68,23.68,0,0,1,3,4.88l5,10h-5.34l-4.7-9.43a13.16,13.16,0,0,0-3.53-4.9,8,8,0,0,0-4.67-1.21h-5.42V83.9h-5V47.13h11.23q6.3,0,9.41,2.64t3.1,8A9.77,9.77,0,0,1,173,63.48,8.33,8.33,0,0,1,168.27,66.66ZM155.81,51.21V64.27h6.26a7.84,7.84,0,0,0,5.43-1.66,6.26,6.26,0,0,0,1.83-4.89,6.18,6.18,0,0,0-1.83-4.86,7.93,7.93,0,0,0-5.43-1.64Z"/><path class="cls-2" d="M177.11,47.13h31.11v4.19H195.16V83.9h-5V51.31H177.11Z"/><path class="cls-2" d="M213,47.13h6.7L236,77.89V47.13h4.83V83.9h-6.7l-16.3-30.76V83.9H213Z"/><path class="cls-2" d="M250.75,47.13H274v4.19H255.72V62.2h17.51v4.19H255.72V79.71h18.72V83.9H250.75Z"/><path class="cls-2" d="M300.05,66.66A7.33,7.33,0,0,1,303.17,69a23.68,23.68,0,0,1,3,4.88l5,10h-5.34l-4.7-9.43a13.16,13.16,0,0,0-3.53-4.9A8,8,0,0,0,293,68.35h-5.42V83.9h-5V47.13h11.23q6.3,0,9.41,2.64t3.1,8a9.77,9.77,0,0,1-1.61,5.76A8.33,8.33,0,0,1,300.05,66.66ZM287.59,51.21V64.27h6.26a7.84,7.84,0,0,0,5.43-1.66,6.26,6.26,0,0,0,1.83-4.89,6.18,6.18,0,0,0-1.83-4.86,7.93,7.93,0,0,0-5.43-1.64Z"/><text class="cls-3" transform="translate(91.85 111.73)">Kancelaria Księgowo - <tspan class="cls-4" x="113.54" y="0">P</tspan><tspan class="cls-5" x="120.52" y="0">odatkowa sp. z o. o.</tspan></text></g></g></svg>