<svg xmlns="http://www.w3.org/2000/svg" viewBox="0 0 920.65 362.78"><defs><style>.cls-1,.cls-2{fill:#4c122b;}.cls-1{fill-rule:evenodd;}</style></defs><title>Zasób 3</title><g id="Warstwa_2" data-name="Warstwa 2"><g id="Warstwa_1-2" data-name="Warstwa 1"><path class="cls-1" d="M366.8,333.27c23.13,13.82,42.65,25.47,49.16,29.51-7.67-4.23-29.15-15.71-54.91-29.51Z"/><path class="cls-1" d="M313.73,258.85c50,6.05,118.84,9.51,176.1,9.53v.1c-15.78.59-108.66,5.24-183.09-2.69a380.65,380.65,0,0,1-44.93-7.18c5.17,3.72,21.77,14,42.37,26.42h-13c-28.4-15.41-52-28.48-58.39-32.76-13.15-3.11-6.38-2.38-17.34-5.53l.31.19q-5.19-1.49-10.24-3.15l-.31-.1c-8.29-2.56-13.81-4.54-14.55-5.29-64-26.15-104.65-81.78-117-104.63C56,101.39,60.88,69.88,42.79,44.14,33.08,30.33,24.72,24.25,10.56,16.2L0,9.79l10.56.84c3.07.13,6.33.4,9.22.73a18.1,18.1,0,0,1,2.16.26l.26,0a5.94,5.94,0,0,0,.86.11s0,0,0,0a11.75,11.75,0,0,0,7.28-1.18,11.56,11.56,0,0,1,2.25-2.06,0,0,0,0,1,0,0h0c9.21-7,35.6-14.77,61.13-.48,10.53,5.91,16.34,13.53,22,22.27C120.91,39.8,135.86,59.39,139,63a34.23,34.23,0,0,0,17.3-4.6c8.57-4.82,22-12.44,39.92-18.52C304.33,3.1,313.2,63.61,477.73,53.13c12.3-1.3,35.59-5.22,48.75-10.55L488.6,59.85c-5.67,2.5-10.83,5.37-14.44,7-17.75,7.88-41.47,18.9-57.23,23.5C387,99,360.2,104.1,319.87,107.93c-62.74,5.94-111.14,25-120.63,44.67-14.9,30.93,5.85,60.88,42.64,90.84A561.72,561.72,0,0,0,306.59,258S311.54,258.6,313.73,258.85Z"/><path class="cls-2" d="M345.11,180.11q-8.74,6.56-25.22,6.56a129.32,129.32,0,0,1-14.8-1v26.9q0,8.58,2.35,11.94t8.58,3.36v2.86H281.39v-2.86q5.38,0,8.24-3,2.69-2.69,2.69-11.94V152.53q0-8.58-2.35-11.94-2.52-3.36-8.58-3.36v-2.86h35.14q10.09,0,16.65,2.19a34.93,34.93,0,0,1,11.6,6.22,24.65,24.65,0,0,1,6.89,8.74,23.37,23.37,0,0,1,2.19,10.26Q353.86,173.88,345.11,180.11Zm-10.42-34.64q-5.55-7.4-17.65-7.4H305.1v43.21A36.87,36.87,0,0,0,317,183a27.9,27.9,0,0,0,12.27-2.52,18.24,18.24,0,0,0,8.24-7.23,21.53,21.53,0,0,0,2.86-11.1A26.1,26.1,0,0,0,334.69,145.47Z"/><path class="cls-2" d="M403,230.72v-2.86q8.41-1.34,8.41-6.22a6.37,6.37,0,0,0-.34-2l-.5-1.18-8.74-26.73H370.67l-9.08,29.93q0,6.22,7.73,6.22v2.86H344.44v-2.86a13.48,13.48,0,0,0,6.89-2.35,15.25,15.25,0,0,0,4.2-4.88q1-2.18,3.19-7.9l26.57-79.36h9.92l27.91,82.89q2,6.56,4.88,9.25,2.86,2.36,8.91,2.35v2.86ZM386.31,145H386l-13.45,40.86h27.07Z"/><path class="cls-2" d="M518.46,230.72A204.79,204.79,0,0,1,506,213.06q-1-1.68-2.35-3.87t-2.35-3.87q-1.51-2.35-3.53-5.38a17.84,17.84,0,0,0-1.51-2.35,31,31,0,0,0-7.57-7.9,17.72,17.72,0,0,0-10.93-3.53H470v26.4q0,8.41,2.35,11.77,2.52,3.53,8.57,3.53v2.86H446.33v-2.86q5.88,0,8.41-3t2.52-12.27V152.19q0-8.91-2.35-12.11-2.69-2.86-8.57-2.86v-2.86h39.51q2.86,0,6.56.34a43.44,43.44,0,0,1,6.72,1.35q6.39,1.18,12.61,7.23a20.54,20.54,0,0,1,4.71,7.06,27.11,27.11,0,0,1,1.51,9.25q0,13.28-7.23,18-7.06,4.71-12.61,5.72a39.88,39.88,0,0,1,10.26,9.75l4.71,7.06,5.55,8.74A105.14,105.14,0,0,0,528.55,223a15.51,15.51,0,0,0,9.58,4.88v2.86Zm-17-81.88a22.53,22.53,0,0,0-8.58-7.9,28.19,28.19,0,0,0-12.78-2.86H470v44.05h11.77q11.43,0,17-6.39,5.72-6.22,5.72-15.81A20.08,20.08,0,0,0,501.48,148.83Z"/><path class="cls-2" d="M618.68,152.7q-1.51-6.89-5.55-10.26-4.2-3.36-14.46-3.36H584v74q0,8.74,2.19,11.6,2,3.2,8.24,3.19v2.86H560.33v-2.86a14.25,14.25,0,0,0,5.88-1q2.35-1,3.7-4.88a29.84,29.84,0,0,0,1.34-9.42V139.08h-14q-10.09,0-14.46,3.19a9.12,9.12,0,0,0-3.7,4.2,12.84,12.84,0,0,0-1.51,6.39h-2.86v-22h2.86a46.85,46.85,0,0,0,5.72,2.19,29.51,29.51,0,0,0,8.74,1.35h52.8a28.69,28.69,0,0,0,7.57-.84,13.5,13.5,0,0,0,5.38-2.69h3v22Z"/><path class="cls-2" d="M721.41,140.43q-2.86,3.37-2.86,11.94v78.35h-2.86L647.76,147h-.34v67.59q0,6.73,2.86,10.09,3,3.2,9.75,3.19v2.86H630.78v-2.86a15.4,15.4,0,0,0,6.73-1.18,9.78,9.78,0,0,0,3.87-4.88,18,18,0,0,0,1-4.2l.34-6.22V155.05q0-8.74-3-12.95-2.86-4.2-11.27-4.88v-2.86h24.72l60.19,75h.34V153q0-9.25-2.69-12.44-2.52-3.36-9.08-3.36v-2.86H731v2.86Q724.09,137.23,721.41,140.43Z"/><path class="cls-2" d="M812.54,230.72H743.09v-2.86q5.55,0,8.41-3Q754,222,754,212.72V152.53q0-8.74-2.35-12.11-2.19-3.19-8.58-3.19v-2.86h69.44v16.14h-1.85q-1.35-6.22-3.36-8.41-2.19-2.52-6.73-3.19l-33.8.17v41.19h29.59a5.68,5.68,0,0,0,2.86-.67,5.06,5.06,0,0,0,3-2.52,20.82,20.82,0,0,0,1.85-6.22H807v23.37h-2.86q-1.18-5.38-3.19-7.23a6.31,6.31,0,0,0-2.86-1.51,14.89,14.89,0,0,0-4.2-.5H766.8v34.47q0,3.37,1.51,4.88,1.51,1.68,5.55,1.68h24.72q2.86,0,7.9-2.52T814,212.72h2.86Z"/><path class="cls-2" d="M901,230.72a204.78,204.78,0,0,1-12.44-17.65q-1-1.68-2.35-3.87t-2.35-3.87q-1.51-2.35-3.53-5.38a17.84,17.84,0,0,0-1.51-2.35,31,31,0,0,0-7.57-7.9,17.72,17.72,0,0,0-10.93-3.53h-7.73v26.4q0,8.41,2.35,11.77,2.52,3.53,8.58,3.53v2.86H828.84v-2.86q5.88,0,8.41-3t2.52-12.27V152.19q0-8.91-2.35-12.11-2.69-2.86-8.58-2.86v-2.86h39.51q2.86,0,6.56.34a43.45,43.45,0,0,1,6.73,1.35q6.39,1.18,12.61,7.23a20.53,20.53,0,0,1,4.71,7.06,27.13,27.13,0,0,1,1.51,9.25q0,13.28-7.23,18-7.06,4.71-12.61,5.72a39.9,39.9,0,0,1,10.26,9.75l4.71,7.06,5.55,8.74A105.15,105.15,0,0,0,911.06,223a15.52,15.52,0,0,0,9.58,4.88v2.86Zm-17-81.88a22.52,22.52,0,0,0-8.58-7.9,28.19,28.19,0,0,0-12.78-2.86H852.55v44.05h11.77q11.43,0,17-6.39,5.71-6.22,5.72-15.81A20.08,20.08,0,0,0,884,148.83Z"/><path class="cls-2" d="M140.56,310v7.15q0,1,0,1.71a2.3,2.3,0,0,0,.2.94v0q.2.28,1.28.32l.4.06.36,0a3.24,3.24,0,0,0,.6,0h.88v2.28q-1.52-.08-3.16-.12t-3,0q-1.36,0-3.08,0t-3.16.12v-2.28l.7,0,.7,0a2.38,2.38,0,0,1,.46,0,3,3,0,0,0,.5,0,4,4,0,0,0,.82-.12.62.62,0,0,0,.34-.2v0a1.78,1.78,0,0,0,.22-.94q0-.66,0-1.7V299.88q0-1,0-1.62a2.17,2.17,0,0,0-.18-.94,1.1,1.1,0,0,0-.4-.22,3.27,3.27,0,0,0-.8-.14,4.55,4.55,0,0,0-.54,0,3.48,3.48,0,0,1-.5,0l-.68,0-.64,0v-2.28q1.52.08,3.18.1l3.06,0,3,0q1.7,0,3.14-.1v2.16l-.94.14-.54.06a1.65,1.65,0,0,1-.4,0H142a3.27,3.27,0,0,0-.8.14,1.08,1.08,0,0,0-.4.22,3.08,3.08,0,0,0-.16.94q0,.66,0,1.62v6.84q2.4-2.36,4.84-4.7t4.84-4.7q.36-.4.64-.74a1.25,1.25,0,0,0,.28-.42v-1.56l.7,0,.7,0h.52l1.06,0,1.06,0,1.1,0,1.1,0h.32l.56,0,.56,0v2.24l-2.2.08h0a3.31,3.31,0,0,0-1.36.4,6.91,6.91,0,0,0-1.32.92l-4.86,4.43-4.86,4.43q3.12,2.93,6.12,5.79t6.12,5.79a5.73,5.73,0,0,0,2,1.4l.2,0,.16,0a1.06,1.06,0,0,0,.38,0h.62v2.24l-.5,0-.5,0h-.2l-.92-.06-1,0-.64,0-.76.06h-.2a6.48,6.48,0,0,1-.78,0h-.86Z"/><path class="cls-2" d="M174.24,310a4.2,4.2,0,0,0-1.19-2.72,4.25,4.25,0,0,0-3.08-1,6.4,6.4,0,0,0-1.49.12,1.69,1.69,0,0,0-.76.44,1.89,1.89,0,0,0-.32.6.08.08,0,0,1,0,.06.08.08,0,0,0,0,.06v.08l-.36.72c0,.08-.06.17-.1.26a1.65,1.65,0,0,1-.14.26,1.78,1.78,0,0,1-.16.32l-.16.28-.72,0a.69.69,0,0,1-.32-.1l-.84-.28v-3.2l2.32-1.4a12.22,12.22,0,0,1,2.55-1.06,8.44,8.44,0,0,1,2.23-.34,10,10,0,0,1,3.27.46A4.52,4.52,0,0,1,177,305a6.12,6.12,0,0,1,1.12,2.56,18.15,18.15,0,0,1,.34,3.78v7c0,.29,0,.57,0,.82a3,3,0,0,0,.1.66s.05.06.16.1a.8.8,0,0,0,.28.06l.38,0,.38,0a2.2,2.2,0,0,0,.5,0H181v2.28l-.56,0-.6,0h-.4l-.94-.06-.94,0-1,0-1,.06-.24,0-.2,0H174l.16-2.68L172.3,321l-1.9,1.32a1.94,1.94,0,0,1-.9.32,8.71,8.71,0,0,1-1.18.08,6.42,6.42,0,0,1-2-.32,4.75,4.75,0,0,1-1.68-1,4.3,4.3,0,0,1-1.12-1.62,6.06,6.06,0,0,1-.4-2.3,5.77,5.77,0,0,1,.7-3,6,6,0,0,1,1.82-1.94,9.06,9.06,0,0,1,2.54-1.18,24.52,24.52,0,0,1,2.82-.66Zm0,2.48q-1.33.2-2.47.48a19.82,19.82,0,0,0-2.39.76A2.94,2.94,0,0,0,168,315a3.49,3.49,0,0,0-.54,1.82,2.38,2.38,0,0,0,.76,1.88,2.48,2.48,0,0,0,1.69.68,3.23,3.23,0,0,0,1.65-.5q.85-.5,1.73-1.14a2.19,2.19,0,0,0,.6-.48l.4-.48Z"/><path class="cls-2" d="M191.48,317.76a11,11,0,0,0,.12,2l0,0c0,.08.33.15.92.2l.36.06.36,0a3.1,3.1,0,0,0,.58,0h.82v2.32l-.6,0-.64,0h-.44l-1.68-.06-1.92,0-1.94,0-1.74.06-.28,0-.2,0H184v-2.32l.68,0,.64,0a2.38,2.38,0,0,1,.46,0,2.32,2.32,0,0,0,.46,0c.51-.05.77-.12.8-.2l0,0a8,8,0,0,0,.16-2v-8.62q0-.8,0-1.34a2.81,2.81,0,0,0-.12-.74,2,2,0,0,0-1-.16h-2v-2.12a20.47,20.47,0,0,0,3.76-.72,26.14,26.14,0,0,0,3-1,.42.42,0,0,0,.16.08.73.73,0,0,0,.22.06l.38,0v2.68q.52-.44,1-.8t1-.8a4.26,4.26,0,0,1,1.5-.92,6.77,6.77,0,0,1,2-.24q3.64,0,5.26,1.92a8,8,0,0,1,1.62,5.35v7.38a8,8,0,0,0,.16,2l0,0q.08.12.88.2a1.67,1.67,0,0,0,.32,0h.24l.7,0,.74,0v2.36h-1.12l-.18,0-.18,0-1.12-.06-1.12,0-1.2,0-1.16.06-.12,0-.12,0h-1V310.91a4.41,4.41,0,0,0-1.08-3.22,3.7,3.7,0,0,0-2.76-1.1,4,4,0,0,0-1.5.3,6.21,6.21,0,0,0-1.34.74,3.78,3.78,0,0,0-1,1,2,2,0,0,0-.36,1Z"/><path class="cls-2" d="M223,310.31l-.36-2.8a2.09,2.09,0,0,0-.6-.46,6.86,6.86,0,0,0-.88-.4,6.25,6.25,0,0,0-1-.28,5.06,5.06,0,0,0-.92-.1,7,7,0,0,0-1.82.24,3.93,3.93,0,0,0-1.62.88,4.7,4.7,0,0,0-1.18,1.74,7.36,7.36,0,0,0-.46,2.82,10.5,10.5,0,0,0,.56,3.66,7.07,7.07,0,0,0,1.48,2.46,5.55,5.55,0,0,0,2.12,1.4,7.14,7.14,0,0,0,2.48.44,6.22,6.22,0,0,0,2-.4,17.52,17.52,0,0,0,2.32-1,3.27,3.27,0,0,0,.44.92,4.53,4.53,0,0,0,.32.4l-.32.5c-.16.25-.28.43-.36.54l0,0c-.05.11-.11.21-.18.32a2.13,2.13,0,0,1-.3.36,2.92,2.92,0,0,1-.72.46,8.61,8.61,0,0,1-1.3.5,13.22,13.22,0,0,1-1.76.4,12.54,12.54,0,0,1-2,.16,9.81,9.81,0,0,1-3.46-.62,8.91,8.91,0,0,1-3-1.82,8.61,8.61,0,0,1-2.06-3A11,11,0,0,1,210,311a10.56,10.56,0,0,1,.82-2.16,8.79,8.79,0,0,1,1.12-1.68,8.1,8.1,0,0,1,1.26-1.2q.68-.48,1.6-1a14.58,14.58,0,0,1,1.84-.88l0,0a11.61,11.61,0,0,1,1.94-.72,7.33,7.33,0,0,1,1.94-.28,7.41,7.41,0,0,1,3,.56,22.81,22.81,0,0,1,2.22,1.12,18.87,18.87,0,0,0-.42,2.42,26,26,0,0,0-.18,3.1Z"/><path class="cls-2" d="M238.28,303.11a9.12,9.12,0,0,1,3.12.52,7,7,0,0,1,4.16,3.92,8,8,0,0,1,.6,3.16v.72q0,.28,0,.58t-.1.82a28.05,28.05,0,0,1-3.84.52q-1.88.12-3.68.12h-5a7.38,7.38,0,0,0,1.72,4.64,5.93,5.93,0,0,0,4.68,1.76,5.2,5.2,0,0,0,2.12-.44,19.19,19.19,0,0,0,2-1h0l.8-.56a2.63,2.63,0,0,0,.44.42,5.56,5.56,0,0,0,.8.5,4.09,4.09,0,0,0-.42.7,2,2,0,0,1-.3.5,1.57,1.57,0,0,1-.2.36l-.2.28a2.63,2.63,0,0,1-.78.6,12.17,12.17,0,0,1-1.62.8,16.63,16.63,0,0,1-2.08.7,8.33,8.33,0,0,1-2.16.3,11,11,0,0,1-4.08-.7,8,8,0,0,1-4.76-4.94,11.46,11.46,0,0,1-.6-3.8,12.22,12.22,0,0,1,.8-4.76,7.51,7.51,0,0,1,2.2-3A8.68,8.68,0,0,1,233,305q.68-.4,1.32-.72,1-.44,2-.8A5.59,5.59,0,0,1,238.28,303.11Zm-.2,2.4a4.18,4.18,0,0,0-3.16,1.35,5.69,5.69,0,0,0-1.32,4q1.08.12,2.14.14l2.14,0h1.92q.76,0,1.8-.08a12.92,12.92,0,0,0-.32-2.12,6.06,6.06,0,0,0-.68-1.71,3.67,3.67,0,0,0-1.06-1.15A2.53,2.53,0,0,0,238.08,305.51Z"/><path class="cls-2" d="M251.52,297.9a3.83,3.83,0,0,0-.06-.74q-.06-.3-.3-.3H248.4v-2.08q1.76-.24,3.46-.62a27,27,0,0,0,3.26-.94l.76.68v23.84a8,8,0,0,0,.16,2l0,0c.05.08.33.15.84.2a1.8,1.8,0,0,0,.36,0h.32l.76,0,.76,0v2.36h-.22l-.4,0-.42,0h-.72l-1.68-.06-1.92,0-1.9,0-1.74.06-.28,0-.24,0h-1.2V320l.75,0,.79,0h.32a1.85,1.85,0,0,0,.36,0c.51-.05.8-.12.85-.2l0,0a7.93,7.93,0,0,0,.16-2Z"/><path class="cls-2" d="M272.32,310a4.2,4.2,0,0,0-1.19-2.72,4.25,4.25,0,0,0-3.08-1,6.4,6.4,0,0,0-1.49.12,1.69,1.69,0,0,0-.76.44,1.89,1.89,0,0,0-.32.6.08.08,0,0,1,0,.06.08.08,0,0,0,0,.06v.08l-.36.72c0,.08-.06.17-.1.26a1.65,1.65,0,0,1-.14.26,1.78,1.78,0,0,1-.16.32l-.16.28-.72,0a.69.69,0,0,1-.32-.1l-.84-.28v-3.2l2.32-1.4a12.22,12.22,0,0,1,2.55-1.06,8.44,8.44,0,0,1,2.23-.34,10,10,0,0,1,3.27.46,4.52,4.52,0,0,1,2.09,1.44,6.12,6.12,0,0,1,1.12,2.56,18.15,18.15,0,0,1,.34,3.78v7c0,.29,0,.57,0,.82a3,3,0,0,0,.1.66s.05.06.16.1a.8.8,0,0,0,.28.06l.38,0,.38,0a2.2,2.2,0,0,0,.5,0h.74v2.28l-.56,0-.6,0h-.4l-.94-.06-.94,0-1,0-1,.06-.24,0-.2,0h-1.16l.16-2.68-1.9,1.28-1.9,1.32a1.94,1.94,0,0,1-.9.32,8.71,8.71,0,0,1-1.18.08,6.42,6.42,0,0,1-2-.32,4.75,4.75,0,0,1-1.68-1,4.3,4.3,0,0,1-1.12-1.62,6.06,6.06,0,0,1-.4-2.3,5.77,5.77,0,0,1,.7-3,6,6,0,0,1,1.82-1.94,9.06,9.06,0,0,1,2.54-1.18,24.52,24.52,0,0,1,2.82-.66Zm0,2.48q-1.33.2-2.47.48a19.82,19.82,0,0,0-2.39.76,2.94,2.94,0,0,0-1.43,1.26,3.49,3.49,0,0,0-.54,1.82,2.38,2.38,0,0,0,.76,1.88,2.48,2.48,0,0,0,1.69.68,3.23,3.23,0,0,0,1.65-.5q.85-.5,1.73-1.14a2.19,2.19,0,0,0,.6-.48l.4-.48Z"/><path class="cls-2" d="M284.72,309.14c0-.53,0-1,0-1.34a2.83,2.83,0,0,0-.12-.74,1.93,1.93,0,0,0-1-.16h-2v-2.12a20.38,20.38,0,0,0,3.72-.72,29.12,29.12,0,0,0,3-1,.42.42,0,0,0,.16.08,1.91,1.91,0,0,0,.6.08v3l.58-.66.58-.66a5.13,5.13,0,0,1,1.8-1.36,4.61,4.61,0,0,1,1.84-.44,4,4,0,0,1,1.14.22q.7.22,1.22.42-.08.64-.12,1.5t-.12,1.46q0,.52-.1,1.32c0,.53-.07,1-.1,1.28h-1.68a5.48,5.48,0,0,0-.9-1.24,1.79,1.79,0,0,0-1.34-.56,2.49,2.49,0,0,0-1.94,1,4,4,0,0,0-.86,2.63v6.58a8,8,0,0,0,.16,2l0,0c0,.08.45.15,1.28.2a1.8,1.8,0,0,0,.36,0h.36l.82,0,.82,0v2.36h-.32l-.52,0-.52,0h-1.56l-1.5-.06-1.54,0-1.9,0-1.74.06-.26,0-.22,0h-1.24V320l.76,0,.76,0h.3a1.73,1.73,0,0,0,.34,0q.84-.08.92-.2l0,0a8,8,0,0,0,.16-2Z"/><path class="cls-2" d="M305.28,317.75a8,8,0,0,0,.16,2l0,0c.05.08.33.15.84.2a1.8,1.8,0,0,0,.36,0h.32l.76,0,.76,0v2.36h-.22l-.4,0-.42,0h-.72l-1.68-.06-1.92,0-1.9,0-1.74.06-.28,0-.24,0h-1.2V320l.75,0,.79,0h.32a1.85,1.85,0,0,0,.36,0c.51-.05.8-.12.85-.2l0,0a8,8,0,0,0,.16-2v-8.64q0-.8,0-1.34a2.87,2.87,0,0,0-.12-.74,1.6,1.6,0,0,0-.93-.16h-2v-2.12a20.48,20.48,0,0,0,3.72-.72,26.17,26.17,0,0,0,3-1,.42.42,0,0,0,.16.08,2.07,2.07,0,0,0,.64.08Zm-2.4-23a2.72,2.72,0,0,1,0,5.44,2.54,2.54,0,0,1-1.86-.84,2.56,2.56,0,0,1,0-3.76A2.53,2.53,0,0,1,302.88,294.75Z"/><path class="cls-2" d="M321.64,310a4.2,4.2,0,0,0-1.19-2.72,4.25,4.25,0,0,0-3.08-1,6.4,6.4,0,0,0-1.49.12,1.7,1.7,0,0,0-.76.44,1.91,1.91,0,0,0-.32.6.08.08,0,0,1,0,.06.08.08,0,0,0,0,.06v.08l-.36.72c0,.08-.06.17-.1.26a1.5,1.5,0,0,1-.14.26,1.71,1.71,0,0,1-.16.32l-.16.28-.72,0a.69.69,0,0,1-.32-.1l-.84-.28v-3.2l2.32-1.4a12.2,12.2,0,0,1,2.55-1.06,8.43,8.43,0,0,1,2.23-.34,10,10,0,0,1,3.27.46,4.53,4.53,0,0,1,2.09,1.44,6.12,6.12,0,0,1,1.12,2.56,18.15,18.15,0,0,1,.34,3.78v7c0,.29,0,.57,0,.82a2.92,2.92,0,0,0,.1.66s.05.06.16.1a.81.81,0,0,0,.28.06l.38,0,.38,0a2.21,2.21,0,0,0,.5,0h.74v2.28l-.56,0-.6,0h-.4l-.94-.06-.94,0-1,0-1,.06-.24,0-.2,0h-1.16l.16-2.68L319.7,321l-1.9,1.32a1.93,1.93,0,0,1-.9.32,8.72,8.72,0,0,1-1.18.08,6.42,6.42,0,0,1-2-.32,4.76,4.76,0,0,1-1.68-1,4.31,4.31,0,0,1-1.12-1.62,6.06,6.06,0,0,1-.4-2.3,5.77,5.77,0,0,1,.7-3,6,6,0,0,1,1.82-1.94,9.07,9.07,0,0,1,2.54-1.18,24.53,24.53,0,0,1,2.82-.66Zm0,2.48q-1.33.2-2.47.48a19.71,19.71,0,0,0-2.39.76,2.94,2.94,0,0,0-1.43,1.26,3.48,3.48,0,0,0-.54,1.82,2.39,2.39,0,0,0,.76,1.88,2.49,2.49,0,0,0,1.69.68,3.23,3.23,0,0,0,1.65-.5q.84-.5,1.73-1.14a2.19,2.19,0,0,0,.6-.48l.4-.48Z"/><path class="cls-2" d="M351.28,310v7.15q0,1,0,1.71a2.3,2.3,0,0,0,.2.94v0q.2.28,1.28.32l.4.06.36,0a3.24,3.24,0,0,0,.6,0H355v2.28q-1.52-.08-3.16-.12t-3,0q-1.36,0-3.08,0t-3.16.12v-2.28l.7,0,.7,0a2.38,2.38,0,0,1,.46,0,3,3,0,0,0,.5,0,4,4,0,0,0,.82-.12.62.62,0,0,0,.34-.2v0a1.78,1.78,0,0,0,.22-.94q0-.66,0-1.7V299.88q0-1,0-1.62a2.17,2.17,0,0,0-.18-.94,1.1,1.1,0,0,0-.4-.22,3.27,3.27,0,0,0-.8-.14,4.55,4.55,0,0,0-.54,0,3.48,3.48,0,0,1-.5,0l-.68,0-.64,0v-2.28q1.52.08,3.18.1l3.06,0,3,0q1.7,0,3.14-.1v2.16l-.94.14-.54.06a1.65,1.65,0,0,1-.4,0h-.48a3.27,3.27,0,0,0-.8.14,1.08,1.08,0,0,0-.4.22,3.08,3.08,0,0,0-.16.94q0,.66,0,1.62v6.84q2.4-2.36,4.84-4.7t4.84-4.7q.36-.4.64-.74a1.25,1.25,0,0,0,.28-.42v-1.56l.7,0,.7,0h.52l1.06,0,1.06,0,1.1,0,1.1,0h.32l.56,0,.56,0v2.24l-2.2.08h0a3.31,3.31,0,0,0-1.36.4,6.91,6.91,0,0,0-1.32.92l-4.86,4.43L355,307.09q3.12,2.93,6.12,5.79t6.12,5.79a5.73,5.73,0,0,0,2,1.4l.2,0,.16,0a1.06,1.06,0,0,0,.38,0h.62v2.24l-.5,0-.5,0h-.2l-.92-.06-1,0-.64,0-.76.06h-.2a6.48,6.48,0,0,1-.78,0h-.86Z"/><path class="cls-2" d="M376.56,315.63v2.16a2,2,0,0,0,.4,1.28,3,3,0,0,0,1,.84,5.19,5.19,0,0,0,1.42.46,8.46,8.46,0,0,0,1.5.14,4.75,4.75,0,0,0,2.78-.82,2.47,2.47,0,0,0,1.18-2.1,2.15,2.15,0,0,0-.4-1.28,2,2,0,0,0-1.08-.76,1.49,1.49,0,0,0-.36-.1,1.44,1.44,0,0,1-.36-.1h-.16a3.85,3.85,0,0,0-.58-.16,3.57,3.57,0,0,1-.58-.16q-.92-.2-1.86-.44a14,14,0,0,1-1.74-.56,6.89,6.89,0,0,1-2.56-1.68,4.2,4.2,0,0,1-1.08-3,5.86,5.86,0,0,1,.66-2.9,5.54,5.54,0,0,1,1.76-1.92,7.39,7.39,0,0,1,2.5-1.06,12.73,12.73,0,0,1,2.84-.32,11.87,11.87,0,0,1,2.76.33,20.93,20.93,0,0,1,2.8.88q0,.47-.08,1.15t-.08,1.39q0,.72-.06,1.42t0,1.22H385v-1.44a1.83,1.83,0,0,0-.34-1.08,2.78,2.78,0,0,0-.9-.8,5.1,5.1,0,0,0-1.26-.5,5.68,5.68,0,0,0-1.42-.18,4.7,4.7,0,0,0-1.66.24,2.45,2.45,0,0,0-1,.62,2,2,0,0,0-.46.82,3.19,3.19,0,0,0-.12.84,1.79,1.79,0,0,0,.88,1.6,7.89,7.89,0,0,0,2.84.88,25.24,25.24,0,0,1,3.18.74,8,8,0,0,1,2.24,1.06,4.1,4.1,0,0,1,1.34,1.54,4.85,4.85,0,0,1,.44,2.14,5.79,5.79,0,0,1-.78,3,7,7,0,0,1-2.06,2.18,9.81,9.81,0,0,1-2.9,1.34,12.16,12.16,0,0,1-3.34.46,15.58,15.58,0,0,1-2.76-.26,25.21,25.21,0,0,1-3.28-.86,24.94,24.94,0,0,0,.44-3.16q.12-1.6.12-3.12Z"/><path class="cls-2" d="M398.4,317.75a8,8,0,0,0,.16,2l0,0c.05.08.33.15.84.2a1.8,1.8,0,0,0,.36,0H400l.76,0,.76,0v2.36h-.22l-.4,0-.42,0h-.72l-1.68-.06-1.92,0-1.9,0-1.74.06-.28,0-.24,0h-1.2V320l.75,0,.79,0h.32a1.85,1.85,0,0,0,.36,0c.51-.05.8-.12.85-.2l0,0a8,8,0,0,0,.16-2v-8.64q0-.8,0-1.34a2.86,2.86,0,0,0-.12-.74,1.6,1.6,0,0,0-.93-.16h-2v-2.12a20.48,20.48,0,0,0,3.72-.72,26.17,26.17,0,0,0,3-1,.42.42,0,0,0,.16.08,2.07,2.07,0,0,0,.64.08Zm-2.4-23a2.72,2.72,0,0,1,0,5.44,2.54,2.54,0,0,1-1.86-.84,2.56,2.56,0,0,1,0-3.76A2.53,2.53,0,0,1,396,294.75Z"/><path class="cls-2" d="M439,307.79a5.29,5.29,0,0,1,.24,1.52,6.06,6.06,0,0,1-.78,3.08,6.38,6.38,0,0,1-2.06,2.2l0,0a10.76,10.76,0,0,1-2.78,1.44,8.94,8.94,0,0,1-2.94.52l-.38,0a.83.83,0,0,1-.3,0l-.12.1a.21.21,0,0,0-.08.1,6.61,6.61,0,0,0-.78.66,1,1,0,0,0-.34.66.64.64,0,0,0,.24.54,1.79,1.79,0,0,0,.6.28,3.51,3.51,0,0,0,.76.12l.76,0h6.16a5.12,5.12,0,0,1,2.42.52,4.5,4.5,0,0,1,1.56,1.32,5.46,5.46,0,0,1,.84,1.74,6.61,6.61,0,0,1,.26,1.74,7.54,7.54,0,0,1-.74,3.22,8.57,8.57,0,0,1-2.16,2.82,11.09,11.09,0,0,1-3.46,2,13.24,13.24,0,0,1-4.64.76,12.39,12.39,0,0,1-3.44-.46,9.63,9.63,0,0,1-2.8-1.28,6.16,6.16,0,0,1-1.88-2,5,5,0,0,1-.68-2.56,6.5,6.5,0,0,1,.3-1.9,3.72,3.72,0,0,1,1.1-1.7l2.24-1.24a2.58,2.58,0,0,1-1.76-2.32,2.77,2.77,0,0,1,.2-1,5.28,5.28,0,0,1,.48-1l2.2-1.72a7.63,7.63,0,0,1-1.32-.66,5.41,5.41,0,0,1-1.24-1.06,5.22,5.22,0,0,1-.92-1.56,5.79,5.79,0,0,1-.36-2.12,6.34,6.34,0,0,1,.88-3.44,7.17,7.17,0,0,1,2.28-2.28,12.39,12.39,0,0,1,3-1.3,10.78,10.78,0,0,1,2.84-.46,8.54,8.54,0,0,1,2.56.4,7,7,0,0,1,2.32,1.24l1.16,0,1.12-.06.82,0,1,0,1,0,.8,0a2,2,0,0,0,.1.54,1.1,1.1,0,0,0,.22.46c-.29.45-.52.79-.68,1a4.92,4.92,0,0,0-.28.42l0,0c-.05.08-.13.22-.24.42a4.66,4.66,0,0,1-.24.42Zm-7.36,23a7.93,7.93,0,0,0,2.64-.42,6.76,6.76,0,0,0,2.06-1.12,5.18,5.18,0,0,0,1.34-1.62,4.18,4.18,0,0,0,.48-2,3.33,3.33,0,0,0-.22-1.26,2,2,0,0,0-.76-.9,4.29,4.29,0,0,0-1.48-.56,11.7,11.7,0,0,0-2.38-.2l-1.74,0q-1.06,0-2.3.14a2.4,2.4,0,0,0-.8.3,3.42,3.42,0,0,0-.9.72,4.48,4.48,0,0,0-.72,1.08,3.14,3.14,0,0,0-.3,1.38,4.4,4.4,0,0,0,.4,1.92,3.84,3.84,0,0,0,1.08,1.38,4.77,4.77,0,0,0,1.62.82A6.93,6.93,0,0,0,431.6,330.83Zm3.24-20.22a8.66,8.66,0,0,0-.2-1.87,4.83,4.83,0,0,0-.66-1.61,3.45,3.45,0,0,0-1.19-1.12,3.51,3.51,0,0,0-1.77-.42,2.81,2.81,0,0,0-2.47,1.13,4.75,4.75,0,0,0-.79,2.81,4.87,4.87,0,0,0,1.07,3.44,3.51,3.51,0,0,0,2.67,1.14,3.19,3.19,0,0,0,2.39-1A3.47,3.47,0,0,0,434.84,310.61Z"/><path class="cls-2" d="M452,323a8.48,8.48,0,0,1-3.52-.72,8.38,8.38,0,0,1-2.76-2,9.17,9.17,0,0,1-1.82-3,10.67,10.67,0,0,1-.66-3.82,12.17,12.17,0,0,1,.7-4.2,9.32,9.32,0,0,1,2-3.3,9,9,0,0,1,3.24-2.14,11.79,11.79,0,0,1,4.36-.76,9.3,9.3,0,0,1,3.66.72,9,9,0,0,1,2.94,2,9.47,9.47,0,0,1,2.68,6.66,11.32,11.32,0,0,1-.78,4.26,9.72,9.72,0,0,1-2.2,3.34,10.1,10.1,0,0,1-3.36,2.18,11.33,11.33,0,0,1-4.26.78Zm.68-17.52a4.56,4.56,0,0,0-2.28.52,4,4,0,0,0-1.46,1.4,6.35,6.35,0,0,0-.78,2,11.28,11.28,0,0,0-.24,2.37,16.76,16.76,0,0,0,.28,3,10.32,10.32,0,0,0,.94,2.85,6.06,6.06,0,0,0,1.78,2.15,4.53,4.53,0,0,0,2.8.84,3.61,3.61,0,0,0,2-.54,4.34,4.34,0,0,0,1.38-1.44,7,7,0,0,0,.8-2.09,11.3,11.3,0,0,0,.26-2.43,14.08,14.08,0,0,0-.38-3.33,9.62,9.62,0,0,0-1.1-2.75,5.86,5.86,0,0,0-1.74-1.87A4,4,0,0,0,452.72,305.51Z"/><path class="cls-2" d="M478.4,303.11H480q.24.84.6,1.82t.64,1.66l3.88,9.8c0-.05,0-.08,0-.08q.36-.8.66-1.62l.62-1.7q.48-1.28,1-2.68t.94-2.68a3.26,3.26,0,0,0,.24-1.12q0-.68-1-.68c-.21,0-.49,0-.82,0s-.67-.07-1-.12v-2.16h.82a2.75,2.75,0,0,1,.62,0l.18,0,.18,0h.2l1.16.06,1.12,0,1.26,0,1.22-.06a1.69,1.69,0,0,0,.4,0l.74,0,.74,0v2.24l-1.6.08a1.86,1.86,0,0,0-.92.9,17.13,17.13,0,0,0-1,2.06q-.56,1.36-1.18,2.82t-1.22,2.78a.61.61,0,0,0-.1.22.64.64,0,0,1-.1.22v0q-.44,1.08-.82,2.18t-.78,2.18v0a1.47,1.47,0,0,0-.06.26.76.76,0,0,1-.06.22.64.64,0,0,0-.08.28l-.42,1.18q-.22.62-.58,1.5h-2.44l-4.92-12.28-.2.44q-.36.72-.68,1.4t-.56,1.28h0q-.48,1.12-1,2.2t-.94,2.12q-.48,1.08-1,2.42t-1,2.42h-2.6l-4-13.28a13.22,13.22,0,0,0-1.1-2.72q-.46-.72-1-.72h-.22l-.3,0-.56,0-.52,0v-2.24h.86a4.51,4.51,0,0,1,.74,0l.28,0,.24,0,1.48.06,1.52,0,1.52,0,1.48-.06.28,0,.28,0a4.62,4.62,0,0,1,.7,0h.9v2.24l-2.12.08c-.61,0-.92.16-.92.48a2.35,2.35,0,0,0,.12.64l2.84,9.2.16-.38.16-.34.44-1.08Z"/><path class="cls-2" d="M502.56,323a8.48,8.48,0,0,1-3.52-.72,8.38,8.38,0,0,1-2.76-2,9.17,9.17,0,0,1-1.82-3,10.67,10.67,0,0,1-.66-3.82,12.17,12.17,0,0,1,.7-4.2,9.32,9.32,0,0,1,2-3.3,9,9,0,0,1,3.24-2.14,11.79,11.79,0,0,1,4.36-.76,9.3,9.3,0,0,1,3.66.72,9,9,0,0,1,2.94,2,9.47,9.47,0,0,1,2.68,6.66,11.32,11.32,0,0,1-.78,4.26,9.72,9.72,0,0,1-2.2,3.34,10.1,10.1,0,0,1-3.36,2.18,11.33,11.33,0,0,1-4.26.78Zm.68-17.52A4.56,4.56,0,0,0,501,306a4,4,0,0,0-1.46,1.4,6.35,6.35,0,0,0-.78,2,11.28,11.28,0,0,0-.24,2.37,16.76,16.76,0,0,0,.28,3,10.32,10.32,0,0,0,.94,2.85,6.06,6.06,0,0,0,1.78,2.15,4.53,4.53,0,0,0,2.8.84,3.61,3.61,0,0,0,2-.54,4.34,4.34,0,0,0,1.38-1.44,7,7,0,0,0,.8-2.09,11.3,11.3,0,0,0,.26-2.43,14.08,14.08,0,0,0-.38-3.33,9.62,9.62,0,0,0-1.1-2.75,5.86,5.86,0,0,0-1.74-1.87A4,4,0,0,0,503.24,305.51Z"/><path class="cls-2" d="M527.64,314a3.87,3.87,0,0,1,.16-.46l.26-.64q.14-.34.24-.66a1.89,1.89,0,0,1,.18-.44v0c.08-.21.18-.46.3-.74s.25-.61.38-1l11.6,0c-.05.11-.13.27-.22.48l-.3.66-.3.64a4.5,4.5,0,0,0-.18.42l-.06.18-.08.2-.2.44L539,314Z"/><path class="cls-2" d="M563.36,317.11q0,1,0,1.7a2.3,2.3,0,0,0,.2.94v0q.2.28,1.32.32l.38.06.38,0a3.1,3.1,0,0,0,.58,0h.86v2.28q-1.52-.08-3.14-.12t-3,0q-1.36,0-3.08,0t-3.16.12v-2.28l.7,0,.7,0a2.38,2.38,0,0,1,.46,0,3,3,0,0,0,.5,0,4,4,0,0,0,.82-.12.62.62,0,0,0,.34-.2v0a1.87,1.87,0,0,0,.24-.94q0-.66,0-1.7V299.88q0-.92-.06-1.58a1.82,1.82,0,0,0-.22-.86.73.73,0,0,0-.38-.3A4.21,4.21,0,0,0,557,297a3.63,3.63,0,0,0-.5,0,2.72,2.72,0,0,1-.46,0l-.64,0-.64,0v-2.24l1,0,1.08,0h1.56l1.92,0,1.88,0,2.24,0,2.24,0,.58,0,.58,0H569a12.53,12.53,0,0,1,3,.36,8.37,8.37,0,0,1,2.66,1.14,6.34,6.34,0,0,1,1.92,2,5.46,5.46,0,0,1,.74,2.92,8.19,8.19,0,0,1-.78,3.56,8.59,8.59,0,0,1-2.1,2.8,9.81,9.81,0,0,1-3.1,1.82,10.8,10.8,0,0,1-3.78.66q-.64,0-1.32,0a6.59,6.59,0,0,1-1.4-.24q-.12-.36-.36-1.2c-.16-.56-.28-1.05-.36-1.48a14.19,14.19,0,0,0,2,.47,10,10,0,0,0,1.28.09,5.11,5.11,0,0,0,2-.38,4.51,4.51,0,0,0,1.58-1.08,5.19,5.19,0,0,0,1-1.63,5.4,5.4,0,0,0,.38-2.05,4.68,4.68,0,0,0-1.52-3.88,6.48,6.48,0,0,0-4.16-1.22q-1,0-1.84.08t-1.48.2Z"/><path class="cls-2" d="M584.56,323a8.48,8.48,0,0,1-3.52-.72,8.38,8.38,0,0,1-2.76-2,9.17,9.17,0,0,1-1.82-3,10.67,10.67,0,0,1-.66-3.82,12.17,12.17,0,0,1,.7-4.2,9.32,9.32,0,0,1,2-3.3,9,9,0,0,1,3.24-2.14,11.79,11.79,0,0,1,4.36-.76,9.3,9.3,0,0,1,3.66.72,9,9,0,0,1,2.94,2,9.47,9.47,0,0,1,2.68,6.66,11.32,11.32,0,0,1-.78,4.26,9.72,9.72,0,0,1-2.2,3.34,10.1,10.1,0,0,1-3.36,2.18,11.33,11.33,0,0,1-4.26.78Zm.68-17.52A4.56,4.56,0,0,0,583,306a4,4,0,0,0-1.46,1.4,6.35,6.35,0,0,0-.78,2,11.28,11.28,0,0,0-.24,2.37,16.76,16.76,0,0,0,.28,3,10.32,10.32,0,0,0,.94,2.85,6.06,6.06,0,0,0,1.78,2.15,4.53,4.53,0,0,0,2.8.84,3.61,3.61,0,0,0,2-.54,4.34,4.34,0,0,0,1.38-1.44,7,7,0,0,0,.8-2.09,11.3,11.3,0,0,0,.26-2.43,14.08,14.08,0,0,0-.38-3.33,9.62,9.62,0,0,0-1.1-2.75,5.86,5.86,0,0,0-1.74-1.87A4,4,0,0,0,585.24,305.51Z"/><path class="cls-2" d="M612.48,297.91a3.84,3.84,0,0,0-.06-.74.32.32,0,0,0-.34-.3h-2.72v-2.08q1.72-.24,3.42-.62a31.77,31.77,0,0,0,3.34-.94l.72.68v23.88a8,8,0,0,0,.16,2l0,0c.05.08.33.15.84.2a1.79,1.79,0,0,0,.36,0h.62l.46,0,.46,0h.3v2.32l-1.46,0q-.54,0-.82-.06h-.16c-.29,0-.57,0-.82,0H616l-1,0-1,.06-.24,0-.2,0H612.4l.16-2.84q-.56.44-1.06.88t-1.06.88l-.66.56c-.23.19-.42.36-.58.52a2.93,2.93,0,0,1-1.14.26q-.78.06-1.58.06a9.09,9.09,0,0,1-3.76-.72,7.35,7.35,0,0,1-2.66-2,8,8,0,0,1-1.56-3,13.25,13.25,0,0,1-.5-3.72,10,10,0,0,1,.32-2.6,9.67,9.67,0,0,1,.86-2.18,7.43,7.43,0,0,1,1.24-1.68,7.65,7.65,0,0,1,1.42-1.14l3.44-1.8,0,0a5,5,0,0,1,1.76-.7,8.75,8.75,0,0,1,1.4-.14,7.33,7.33,0,0,1,2,.28,20.18,20.18,0,0,1,2.06.72Zm-.46,9.76a7.33,7.33,0,0,0-1.16-.72,9.39,9.39,0,0,0-1.56-.62,5.75,5.75,0,0,0-1.66-.26q-5.2.16-5.2,6.48a9,9,0,0,0,.34,2.42,7,7,0,0,0,1,2.2,5.78,5.78,0,0,0,1.72,1.6,4.48,4.48,0,0,0,2.38.62,3.69,3.69,0,0,0,2-.64,6.6,6.6,0,0,0,1.68-1.52,3.4,3.4,0,0,0,.76-1.66,13.79,13.79,0,0,0,.12-1.9v-5.4Q612.48,308,612,307.67Z"/><path class="cls-2" d="M634.16,310a4.2,4.2,0,0,0-1.19-2.72,4.25,4.25,0,0,0-3.08-1,6.4,6.4,0,0,0-1.49.12,1.7,1.7,0,0,0-.76.44,1.9,1.9,0,0,0-.32.6.08.08,0,0,1,0,.06.08.08,0,0,0,0,.06v.08l-.36.72c0,.08-.06.17-.1.26a1.57,1.57,0,0,1-.14.26,1.76,1.76,0,0,1-.16.32l-.16.28-.72,0a.68.68,0,0,1-.32-.1l-.84-.28v-3.2l2.32-1.4a12.2,12.2,0,0,1,2.55-1.06,8.44,8.44,0,0,1,2.23-.34,10,10,0,0,1,3.27.46,4.53,4.53,0,0,1,2.09,1.44,6.12,6.12,0,0,1,1.12,2.56,18.15,18.15,0,0,1,.34,3.78v7c0,.29,0,.57,0,.82a2.92,2.92,0,0,0,.1.66s.05.06.16.1a.81.81,0,0,0,.28.06l.38,0,.38,0a2.21,2.21,0,0,0,.5,0H641v2.28l-.56,0-.6,0h-.4l-.94-.06-.94,0-1,0-1,.06-.24,0-.2,0H634l.16-2.68-1.9,1.28-1.9,1.32a1.94,1.94,0,0,1-.9.32,8.72,8.72,0,0,1-1.18.08,6.42,6.42,0,0,1-2-.32,4.75,4.75,0,0,1-1.68-1,4.29,4.29,0,0,1-1.12-1.62,6,6,0,0,1-.4-2.3,5.77,5.77,0,0,1,.7-3,6,6,0,0,1,1.82-1.94,9.07,9.07,0,0,1,2.54-1.18,24.53,24.53,0,0,1,2.82-.66Zm0,2.48q-1.33.2-2.47.48a19.76,19.76,0,0,0-2.39.76A2.94,2.94,0,0,0,627.9,315a3.49,3.49,0,0,0-.54,1.82,2.39,2.39,0,0,0,.76,1.88,2.49,2.49,0,0,0,1.69.68,3.23,3.23,0,0,0,1.65-.5q.85-.5,1.73-1.14a2.19,2.19,0,0,0,.6-.48l.4-.48Z"/><path class="cls-2" d="M640.56,307.83V306l3-1.32v-2.36q0-.68,0-1.46a19.44,19.44,0,0,0-.18-2,13.29,13.29,0,0,0,2.26-.84,12.09,12.09,0,0,0,1.66-1l1,1q-.2,1.35-.32,2.88t-.12,2.68v.88q.44,0,.9,0t.9,0l3.56-.12q0,.24-.12.68t-.16.92q-.08.48-.16.92t-.12.68h-4.8v9.48a3.2,3.2,0,0,0,.3,1.56,1.29,1.29,0,0,0,1.22.52,3.21,3.21,0,0,0,1.2-.28q.68-.28,1.16-.52l.26.24a1.37,1.37,0,0,1,.26.28,3.93,3.93,0,0,0,.36.4l.32.32-2.2,2.48a2.8,2.8,0,0,1-1.34.5,10.4,10.4,0,0,1-1.58.14,6.09,6.09,0,0,1-1.66-.22,3.41,3.41,0,0,1-1.38-.76,3.63,3.63,0,0,1-.94-1.42,6.15,6.15,0,0,1-.34-2.2V307.63Z"/><path class="cls-2" d="M662.6,313.79v4a8,8,0,0,0,.16,2l0,0q.08.12.88.2a1.65,1.65,0,0,0,.32,0h.6l.44,0,.46,0h.3v2.36l-.6,0-.64,0H664l-1.66-.06-1.94,0-1.94,0q-1,0-1.7.06l-.3,0-.22,0H655V320h.3l.46,0,.46,0h.64a1.73,1.73,0,0,0,.34,0c.53-.05.83-.12.88-.2l0,0a8,8,0,0,0,.16-2V297.9a3.84,3.84,0,0,0-.06-.74.32.32,0,0,0-.34-.3h-2.72v-2.08q1.8-.24,3.5-.62a27,27,0,0,0,3.26-.94l.72.68v16.52q.52-.36,1-.74l.9-.74h0q.64-.52,1.36-1.18l1.44-1.32q.72-.66,1.38-1.3l1.18-1.16.28-.26.24-.22H675l-.08,2.32a5.17,5.17,0,0,0-2.48.54,18.39,18.39,0,0,0-1.8,1.1q-1.24,1-2.22,1.76T666.16,311q.72.88,1.16,1.35a7.62,7.62,0,0,0,.84.8q1.16,1.2,2.42,2.39t2.46,2.39a8.2,8.2,0,0,0,1.4,1.08,4.64,4.64,0,0,0,2,.68v1.8q-.48.16-1.16.34t-1.12.34c-.29.11-.66.22-1.1.34l-1.1.3Z"/><path class="cls-2" d="M685.28,323a8.48,8.48,0,0,1-3.52-.72,8.38,8.38,0,0,1-2.76-2,9.17,9.17,0,0,1-1.82-3,10.67,10.67,0,0,1-.66-3.82,12.17,12.17,0,0,1,.7-4.2,9.32,9.32,0,0,1,2-3.3,9,9,0,0,1,3.24-2.14,11.79,11.79,0,0,1,4.36-.76,9.3,9.3,0,0,1,3.66.72,9,9,0,0,1,2.94,2,9.47,9.47,0,0,1,2.68,6.66,11.32,11.32,0,0,1-.78,4.26,9.72,9.72,0,0,1-2.2,3.34,10.1,10.1,0,0,1-3.36,2.18,11.33,11.33,0,0,1-4.26.78Zm.68-17.52a4.56,4.56,0,0,0-2.28.52,4,4,0,0,0-1.46,1.4,6.35,6.35,0,0,0-.78,2,11.28,11.28,0,0,0-.24,2.37,16.76,16.76,0,0,0,.28,3,10.32,10.32,0,0,0,.94,2.85,6.06,6.06,0,0,0,1.78,2.15,4.53,4.53,0,0,0,2.8.84,3.61,3.61,0,0,0,2-.54,4.34,4.34,0,0,0,1.38-1.44,7,7,0,0,0,.8-2.09,11.3,11.3,0,0,0,.26-2.43,14.08,14.08,0,0,0-.38-3.33,9.62,9.62,0,0,0-1.1-2.75,5.86,5.86,0,0,0-1.74-1.87A4,4,0,0,0,686,305.51Z"/><path class="cls-2" d="M711.64,303.11h1.64q.24.84.6,1.82t.64,1.66l3.88,9.8c0-.05,0-.08,0-.08q.36-.8.66-1.62l.62-1.7q.48-1.28,1-2.68t.94-2.68a3.26,3.26,0,0,0,.24-1.12q0-.68-1-.68c-.21,0-.49,0-.82,0s-.67-.07-1-.12v-2.16h.82a2.75,2.75,0,0,1,.62,0l.18,0,.18,0h.2l1.16.06,1.12,0,1.26,0,1.22-.06a1.69,1.69,0,0,0,.4,0l.74,0,.74,0v2.24l-1.6.08a1.86,1.86,0,0,0-.92.9,17.13,17.13,0,0,0-1,2.06q-.56,1.36-1.18,2.82t-1.22,2.78a.61.61,0,0,0-.1.22.64.64,0,0,1-.1.22v0q-.44,1.08-.82,2.18t-.78,2.18v0a1.47,1.47,0,0,0-.06.26.76.76,0,0,1-.06.22.64.64,0,0,0-.08.28l-.42,1.18q-.22.62-.58,1.5h-2.44l-4.92-12.28-.2.44q-.36.72-.68,1.4t-.56,1.28h0q-.48,1.12-1,2.2t-.94,2.12q-.48,1.08-1,2.42t-1,2.42h-2.6l-4-13.28a13.22,13.22,0,0,0-1.1-2.72q-.46-.72-1-.72h-.22l-.3,0-.56,0-.52,0v-2.24h.86a4.51,4.51,0,0,1,.74,0l.28,0,.24,0,1.48.06,1.52,0,1.52,0,1.48-.06.28,0,.28,0a4.62,4.62,0,0,1,.7,0h.9v2.24l-2.12.08c-.61,0-.92.16-.92.48a2.35,2.35,0,0,0,.12.64l2.84,9.2.16-.38.16-.34.44-1.08Z"/><path class="cls-2" d="M739,310a4.2,4.2,0,0,0-1.19-2.72,4.25,4.25,0,0,0-3.08-1,6.4,6.4,0,0,0-1.49.12,1.7,1.7,0,0,0-.76.44,1.9,1.9,0,0,0-.32.6.08.08,0,0,1,0,.06.08.08,0,0,0,0,.06v.08l-.36.72c0,.08-.06.17-.1.26a1.57,1.57,0,0,1-.14.26,1.76,1.76,0,0,1-.16.32l-.16.28-.72,0a.68.68,0,0,1-.32-.1l-.84-.28v-3.2l2.32-1.4a12.2,12.2,0,0,1,2.55-1.06,8.44,8.44,0,0,1,2.23-.34,10,10,0,0,1,3.27.46,4.53,4.53,0,0,1,2.09,1.44,6.12,6.12,0,0,1,1.12,2.56,18.15,18.15,0,0,1,.34,3.78v7c0,.29,0,.57,0,.82a2.92,2.92,0,0,0,.1.66s.05.06.16.1a.81.81,0,0,0,.28.06l.38,0,.38,0a2.21,2.21,0,0,0,.5,0h.74v2.28l-.56,0-.6,0h-.4l-.94-.06-.94,0-1,0-1,.06-.24,0-.2,0h-1.16l.16-2.68L737.1,321l-1.9,1.32a1.94,1.94,0,0,1-.9.32,8.72,8.72,0,0,1-1.18.08,6.42,6.42,0,0,1-2-.32,4.75,4.75,0,0,1-1.68-1,4.29,4.29,0,0,1-1.12-1.62,6,6,0,0,1-.4-2.3,5.77,5.77,0,0,1,.7-3,6,6,0,0,1,1.82-1.94,9.07,9.07,0,0,1,2.54-1.18,24.53,24.53,0,0,1,2.82-.66Zm0,2.48q-1.33.2-2.47.48a19.76,19.76,0,0,0-2.39.76,2.94,2.94,0,0,0-1.43,1.26,3.49,3.49,0,0,0-.54,1.82,2.39,2.39,0,0,0,.76,1.88,2.49,2.49,0,0,0,1.69.68,3.23,3.23,0,0,0,1.65-.5q.85-.5,1.73-1.14a2.19,2.19,0,0,0,.6-.48l.4-.48Z"/><path class="cls-2" d="M762.6,315.63v2.16a2,2,0,0,0,.4,1.28,3,3,0,0,0,1,.84,5.17,5.17,0,0,0,1.42.46,8.45,8.45,0,0,0,1.5.14,4.75,4.75,0,0,0,2.78-.82,2.47,2.47,0,0,0,1.18-2.1,2.15,2.15,0,0,0-.4-1.28,2,2,0,0,0-1.08-.76,1.49,1.49,0,0,0-.36-.1,1.42,1.42,0,0,1-.36-.1h-.16a3.82,3.82,0,0,0-.58-.16,3.63,3.63,0,0,1-.58-.16q-.92-.2-1.86-.44a14,14,0,0,1-1.74-.56,6.89,6.89,0,0,1-2.56-1.68,4.19,4.19,0,0,1-1.08-3,5.86,5.86,0,0,1,.66-2.9,5.53,5.53,0,0,1,1.76-1.92,7.39,7.39,0,0,1,2.5-1.06,12.73,12.73,0,0,1,2.84-.32,11.87,11.87,0,0,1,2.76.33,20.88,20.88,0,0,1,2.8.88q0,.47-.08,1.15c0,.45-.05.91-.08,1.39s0,1-.06,1.42,0,.87,0,1.22h-2.16v-1.44a1.83,1.83,0,0,0-.34-1.08,2.79,2.79,0,0,0-.9-.8,5.12,5.12,0,0,0-1.26-.5,5.68,5.68,0,0,0-1.42-.18,4.7,4.7,0,0,0-1.66.24,2.45,2.45,0,0,0-1,.62,2,2,0,0,0-.46.82,3.19,3.19,0,0,0-.12.84,1.79,1.79,0,0,0,.88,1.6,7.88,7.88,0,0,0,2.84.88,25.28,25.28,0,0,1,3.18.74,8,8,0,0,1,2.24,1.06,4.09,4.09,0,0,1,1.34,1.54,4.84,4.84,0,0,1,.44,2.14,5.78,5.78,0,0,1-.78,3,7,7,0,0,1-2.06,2.18,9.81,9.81,0,0,1-2.9,1.34,12.17,12.17,0,0,1-3.34.46,15.58,15.58,0,0,1-2.76-.26,25.21,25.21,0,0,1-3.28-.86,25.11,25.11,0,0,0,.44-3.16q.12-1.6.12-3.12Z"/><path class="cls-2" d="M781.24,309.15q0-.8,0-1.34a2.92,2.92,0,0,0-.12-.74,1.57,1.57,0,0,0-.92-.16h-2v-2.12a20.4,20.4,0,0,0,3.72-.72,26.17,26.17,0,0,0,3-1,.42.42,0,0,0,.16.08,1.91,1.91,0,0,0,.6.08v3q.56-.52,1.12-1t1.12-1h0a4.1,4.1,0,0,1,1.58-.84,8.14,8.14,0,0,1,2.42-.32,8.3,8.3,0,0,1,8.36,8.4,7.31,7.31,0,0,1-.36,2.16,16.28,16.28,0,0,1-.88,2.24,13.92,13.92,0,0,1-1.12,1.94,6.47,6.47,0,0,1-1.08,1.26L792.2,322a3.93,3.93,0,0,1-1.36.52,8.15,8.15,0,0,1-1.6.16,16.88,16.88,0,0,1-1.72-.1,6.81,6.81,0,0,1-1.92-.5v6.33a7.44,7.44,0,0,0,.16,2l0-.12q.16.24.92.32a1.8,1.8,0,0,0,.34,0h.3l.76,0,.76,0v2.36l-.66,0-.7,0H787l-1.68-.06-1.92,0-1.92,0-1.76.06-.24,0-.24,0h-1.2v-2.36h.3l.46,0,.46,0h.62a1.89,1.89,0,0,0,.36,0c.53-.05.81-.13.84-.24l0,0a7.49,7.49,0,0,0,.16-2Zm4.36,8.6a6.1,6.1,0,0,0,2.28,1.48,7.82,7.82,0,0,0,2.64.44,4,4,0,0,0,2-.52,5.36,5.36,0,0,0,1.66-1.46,7.48,7.48,0,0,0,1.14-2.2,8.74,8.74,0,0,0,.42-2.78,7.89,7.89,0,0,0-.34-2.34,5.32,5.32,0,0,0-1-1.9,4.74,4.74,0,0,0-1.72-1.26,5.88,5.88,0,0,0-2.4-.46,4.62,4.62,0,0,0-1.62.26,5.91,5.91,0,0,0-1.26.64,5.32,5.32,0,0,0-1,.82,5.4,5.4,0,0,0-.64.84,2.08,2.08,0,0,0-.12.46,2.86,2.86,0,0,0,0,.38Z"/><path class="cls-2" d="M805.08,322.47a2.59,2.59,0,0,1-1.94-.86,2.74,2.74,0,0,1-.82-1.94,2.34,2.34,0,0,1,.24-1,3.15,3.15,0,0,1,1.5-1.5,2.33,2.33,0,0,1,1-.24,2.47,2.47,0,0,1,1,.24,3.42,3.42,0,0,1,.92.62,3,3,0,0,1,.64.88,2.34,2.34,0,0,1,.24,1,2.91,2.91,0,0,1-2.84,2.8Z"/><path class="cls-2" d="M828.6,319.87h4l1.82,0c.57,0,1.08,0,1.52-.1a5.65,5.65,0,0,0,1.08-.22c.28-.09.45-.21.5-.34v.08l.16-.66c.05-.23.11-.47.16-.74s.13-.57.24-1,.19-.77.24-1h2.28a2.08,2.08,0,0,1,0,.34c0,.15-.06.31-.1.48s-.07.33-.1.48a1.94,1.94,0,0,0,0,.3,3.91,3.91,0,0,0-.06.42c0,.15,0,.3-.06.46q-.08.92-.18,1.93t-.18,2.15h-.52l-.7,0-.76,0h-2.5l-4-.06-4,0-1.56,0-1.52.06-.34,0-.34,0H823l-.68-.44s-.05-.08-.08-.24a2,2,0,0,1-.16-.88,7.1,7.1,0,0,0,.54-.62,7.13,7.13,0,0,1,.54-.62q.6-.72,1.22-1.42t1.22-1.5l6.56-8.16v0q.32-.4.52-.68l.38-.52q.18-.24.38-.54L834,306h-4.44a18.08,18.08,0,0,0-2.4.1c-.4.07-.63.21-.68.42a3.52,3.52,0,0,0-.1.6,3.61,3.61,0,0,1-.1.6,8.54,8.54,0,0,0-.16.94,9.07,9.07,0,0,1-.16.94h-2.32a7.59,7.59,0,0,0,.08-1,1.91,1.91,0,0,1,.08-.6.45.45,0,0,0,0-.2c0-.29,0-.53.06-.7s0-.33,0-.48,0-.29,0-.42,0-.32,0-.56v-.5a4.88,4.88,0,0,1,0-.62c0-.11,0-.3,0-.58s0-.47,0-.58l1.2,0,1.32,0h1.6l3.6.06,3.6,0,1.32,0,1.36-.06h.6l.68,0,.68,0v1.92Z"/><path class="cls-2" d="M864,323a8.48,8.48,0,0,1-3.52-.72,8.38,8.38,0,0,1-2.76-2,9.17,9.17,0,0,1-1.82-3,10.67,10.67,0,0,1-.66-3.82,12.17,12.17,0,0,1,.7-4.2,9.32,9.32,0,0,1,2-3.3,9,9,0,0,1,3.24-2.14,11.79,11.79,0,0,1,4.36-.76,9.3,9.3,0,0,1,3.66.72,9,9,0,0,1,2.94,2,9.47,9.47,0,0,1,2.68,6.66,11.32,11.32,0,0,1-.78,4.26,9.72,9.72,0,0,1-2.2,3.34,10.1,10.1,0,0,1-3.36,2.18,11.33,11.33,0,0,1-4.26.78Zm.68-17.52a4.56,4.56,0,0,0-2.28.52,4,4,0,0,0-1.46,1.4,6.35,6.35,0,0,0-.78,2,11.28,11.28,0,0,0-.24,2.37,16.76,16.76,0,0,0,.28,3,10.32,10.32,0,0,0,.94,2.85,6.06,6.06,0,0,0,1.78,2.15,4.53,4.53,0,0,0,2.8.84,3.61,3.61,0,0,0,2-.54,4.34,4.34,0,0,0,1.38-1.44,7,7,0,0,0,.8-2.09,11.3,11.3,0,0,0,.26-2.43,14.08,14.08,0,0,0-.38-3.33,9.62,9.62,0,0,0-1.1-2.75,5.86,5.86,0,0,0-1.74-1.87A4,4,0,0,0,864.68,305.51Z"/><path class="cls-2" d="M877.84,322.47a2.59,2.59,0,0,1-1.94-.86,2.74,2.74,0,0,1-.82-1.94,2.34,2.34,0,0,1,.24-1,3.15,3.15,0,0,1,1.5-1.5,2.33,2.33,0,0,1,1-.24,2.47,2.47,0,0,1,1,.24,3.42,3.42,0,0,1,.92.62,3,3,0,0,1,.64.88,2.34,2.34,0,0,1,.24,1,2.91,2.91,0,0,1-2.84,2.8Z"/><path class="cls-2" d="M903.64,323a8.48,8.48,0,0,1-3.52-.72,8.38,8.38,0,0,1-2.76-2,9.17,9.17,0,0,1-1.82-3,10.67,10.67,0,0,1-.66-3.82,12.17,12.17,0,0,1,.7-4.2,9.32,9.32,0,0,1,2-3.3,9,9,0,0,1,3.24-2.14,11.79,11.79,0,0,1,4.36-.76,9.3,9.3,0,0,1,3.66.72,9,9,0,0,1,2.94,2,9.47,9.47,0,0,1,2.68,6.66,11.32,11.32,0,0,1-.78,4.26,9.72,9.72,0,0,1-2.2,3.34,10.1,10.1,0,0,1-3.36,2.18,11.33,11.33,0,0,1-4.26.78Zm.68-17.52A4.56,4.56,0,0,0,902,306a4,4,0,0,0-1.46,1.4,6.35,6.35,0,0,0-.78,2,11.28,11.28,0,0,0-.24,2.37,16.76,16.76,0,0,0,.28,3,10.32,10.32,0,0,0,.94,2.85,6.06,6.06,0,0,0,1.78,2.15,4.53,4.53,0,0,0,2.8.84,3.61,3.61,0,0,0,2-.54,4.34,4.34,0,0,0,1.38-1.44,7,7,0,0,0,.8-2.09,11.3,11.3,0,0,0,.26-2.43,14.08,14.08,0,0,0-.38-3.33,9.62,9.62,0,0,0-1.1-2.75,5.86,5.86,0,0,0-1.74-1.87A4,4,0,0,0,904.32,305.51Z"/><path class="cls-2" d="M917.48,322.47a2.59,2.59,0,0,1-1.94-.86,2.74,2.74,0,0,1-.82-1.94,2.34,2.34,0,0,1,.24-1,3.15,3.15,0,0,1,1.5-1.5,2.33,2.33,0,0,1,1-.24,2.47,2.47,0,0,1,1,.24,3.42,3.42,0,0,1,.92.62,3,3,0,0,1,.64.88,2.34,2.34,0,0,1,.24,1,2.91,2.91,0,0,1-2.84,2.8Z"/><path class="cls-2" d="M420.32,307.55a7,7,0,0,0-4.16-3.92,9,9,0,0,0-3.12-.52,5.58,5.58,0,0,0-1.94.36c-.65.24-1.33.51-2,.8q-.64.31-1.32.72a9.7,9.7,0,0,0-1.2.84,7.57,7.57,0,0,0-2.2,3,12.28,12.28,0,0,0-.8,4.76,11.47,11.47,0,0,0,.6,3.8,8.13,8.13,0,0,0,1.8,3,8.29,8.29,0,0,0,3,2,10.9,10.9,0,0,0,4.08.7h.36a5.62,5.62,0,0,0-1.91,3.79c0,2,1.44,3.16,3.6,3.16a5.53,5.53,0,0,0,3.24-1l-.56-1.8a5.29,5.29,0,0,1-1.88.4,1.56,1.56,0,0,1-1.64-1.68c0-1.4,1.6-3,3-3.9a12.24,12.24,0,0,0,1.62-.8,2.76,2.76,0,0,0,.78-.6c0-.08.12-.17.2-.28a1.58,1.58,0,0,0,.2-.36,2,2,0,0,0,.3-.5,4.06,4.06,0,0,1,.42-.7,5.75,5.75,0,0,1-.8-.5,3,3,0,0,1-.44-.42l-.8.56h0a19,19,0,0,1-2,1,5.26,5.26,0,0,1-2.12.44,5.94,5.94,0,0,1-4.68-1.76,7.4,7.4,0,0,1-1.72-4.64h5c1.2,0,2.43,0,3.68-.12a27.8,27.8,0,0,0,3.84-.52c0-.35.09-.62.1-.82s0-.39,0-.58v-.72A8,8,0,0,0,420.32,307.55ZM414.56,311h-1.92l-2.14,0c-.71,0-1.42-.06-2.14-.14a5.72,5.72,0,0,1,1.32-4,4.18,4.18,0,0,1,3.16-1.35,2.53,2.53,0,0,1,1.46.42,3.79,3.79,0,0,1,1.06,1.15,6.3,6.3,0,0,1,.68,1.71,12.55,12.55,0,0,1,.32,2.12C415.67,311,415.07,311,414.56,311Z"/></g></g></svg>